Walking02_kinetics.mot
version=1
nRows=20
nColumns=19
inDegrees=yes
endheader
time	1_ground_force_vx	1_ground_force_vy	1_ground_force_vz	1_ground_force_px	1_ground_force_py	1_ground_force_pz	2_ground_force_vx	2_ground_force_vy	2_ground_force_vz	2_ground_force_px	2_ground_force_py	2_ground_force_pz	1_ground_torque_x	1_ground_torque_y	1_ground_torque_z	2_ground_torque_x	2_ground_torque_y	2_ground_torque_z
  0.49000000	-113.77082925	448.05189256	 -4.92940959	  0.24739883	 -0.00053181	 -0.13751116	192.80491976	618.16029124	-26.94865893	 -0.29820209	  0.00246796	 -0.01475602	 -0.00029215	  0.22569962	  0.00014368	  0.00360272	  2.76452960	  0.00009134
  0.49100000	-115.35999887	455.68103642	 -5.52850234	  0.24818505	 -0.00053058	 -0.13784950	192.65955473	610.66674584	-26.12222732	 -0.29801336	  0.00246772	 -0.01490681	 -0.00029854	  0.23063552	  0.00014682	  0.00354343	  2.71903338	  0.00008984
  0.49200000	-116.82532881	463.75843391	 -6.11834303	  0.24889848	 -0.00052946	 -0.13815450	192.45307375	602.82746777	-25.30951631	 -0.29782839	  0.00246748	 -0.01508382	 -0.00030039	  0.23206552	  0.00014773	  0.00348964	  2.67775194	  0.00008847
  0.49300000	-118.19011139	471.98055771	 -6.69887392	  0.24953080	 -0.00052848	 -0.13841066	192.18529276	594.65316898	-24.51193742	 -0.29764596	  0.00246725	 -0.01528591	 -0.00030404	  0.23488451	  0.00014953	  0.00344204	  2.64122656	  0.00008727
  0.49400000	-119.46535079	479.99732566	 -7.26203360	  0.25008047	 -0.00052764	 -0.13861067	191.85498658	586.15437972	-23.72730380	 -0.29746388	  0.00246702	 -0.01551249	 -0.00031423	  0.24275851	  0.00015454	  0.00340085	  2.60962140	  0.00008622
  0.49500000	-120.65219828	487.47591669	 -7.79247356	  0.25055307	 -0.00052694	 -0.13875646	191.45955603	577.34198915	-22.95031679	 -0.29727993	  0.00246679	 -0.01576312	 -0.00033344	  0.25759865	  0.00016399	  0.00336578	  2.58271057	  0.00008533
  0.49600000	-121.74410370	494.12660541	 -8.27109783	  0.25095815	 -0.00052635	 -0.13885445	190.99467571	568.23214303	-22.17429389	 -0.29709284	  0.00246655	 -0.01603609	 -0.00036266	  0.28017084	  0.00017836	  0.00333625	  2.56005297	  0.00008458
  0.49700000	-122.72963305	499.71762181	 -8.67903317	  0.25130611	 -0.00052586	 -0.13891094	190.45344375	558.85089999	-21.39241578	 -0.29690281	  0.00246632	 -0.01632696	 -0.00040227	  0.31077061	  0.00019784	  0.00331147	  2.54103914	  0.00008395
  0.49800000	-123.59637414	504.09711239	 -9.00025726	  0.25160767	 -0.00052546	 -0.13893174	189.82488924	549.23509695	-20.59740550	 -0.29671088	  0.00246608	 -0.01662820	 -0.00045203	  0.34921734	  0.00022231	  0.00329008	  2.52462499	  0.00008341
  0.49900000	-124.33450387	507.21238182	 -9.22322802	  0.25187459	 -0.00052512	 -0.13892420	189.09287967	539.43005329	-19.78074410	 -0.29651789	  0.00246583	 -0.01692970	 -0.00051066	  0.39451304	  0.00025115	  0.00326974	  2.50901605	  0.00008290
  0.50000000	-124.93802080	509.10738976	 -9.34243654	  0.25211962	 -0.00052482	 -0.13889821	188.23681726	529.48576417	-18.93315583	 -0.29632386	  0.00246559	 -0.01721987	 -0.00057580	  0.44483222	  0.00028318	  0.00324717	  2.49169785	  0.00008232
  0.50100000	-125.40370385	509.89723199	 -9.35977414	  0.25235513	 -0.00052453	 -0.13886529	187.23414125	519.45226842	-18.04646404	 -0.29612795	  0.00246534	 -0.01748699	 -0.00064456	  0.49795734	  0.00031700	  0.00321870	  2.46984883	  0.00008160
  0.50200000	-125.72990484	509.73446492	 -9.28437917	  0.25259168	 -0.00052425	 -0.13883670	186.06318615	509.37491712	-17.11532702	 -0.29592875	  0.00246509	 -0.01772058	 -0.00071430	  0.55182984	  0.00035130	  0.00318089	  2.44083686	  0.00008064
  0.50300000	-125.91663022	508.77946096	 -9.13016741	  0.25283737	 -0.00052394	 -0.13882155	184.70524793	499.29007391	-16.13776986	 -0.29572447	  0.00246483	 -0.01791224	 -0.00078305	  0.60494489	  0.00038511	  0.00313102	  2.40256958	  0.00007938
  0.50400000	-125.96631217	507.18025318	 -8.91247060	  0.25309786	 -0.00052360	 -0.13882556	183.14587545	489.22122414	-15.11491920	 -0.29551294	  0.00246456	 -0.01805634	 -0.00084980	  0.65651272	  0.00041794	  0.00306734	  2.35370492	  0.00007777
  0.50500000	-125.88402217	505.06503158	 -8.64576134	  0.25337625	 -0.00052322	 -0.13885137	181.37567648	479.17533543	-14.05074101	 -0.29529120	  0.00246428	 -0.01815057	 -0.00091432	  0.70636226	  0.00044967	  0.00298926	  2.29379200	  0.00007579
  0.50600000	-125.67693932	502.54506726	 -8.34292028	  0.25367281	 -0.00052281	 -0.13890001	179.39065093	469.14046117	-12.95190864	 -0.29505489	  0.00246397	 -0.01819634	 -0.00097684	  0.75465660	  0.00048042	  0.00289747	  2.22336003	  0.00007346
  0.50700000	-125.35377241	499.71928114	 -8.01554643	  0.25398488	 -0.00052236	 -0.13897164	177.19169723	459.08788903	-11.82739164	 -0.29479789	  0.00246363	 -0.01819892	 -0.00103766	  0.80164755	  0.00051033	  0.00279396	  2.14392765	  0.00007083
  0.50800000	-124.92457759	496.67409677	 -7.67471940	  0.25430705	 -0.00052188	 -0.13906470	174.78306433	448.98031416	-10.68752143	 -0.29451283	  0.00246326	 -0.01816680	 -0.00109717	  0.84761778	  0.00053960	  0.00268187	  2.05791498	  0.00006799
  0.50900000	-124.40070085	493.48065869	 -7.33128909	  0.25463167	 -0.00052139	 -0.13917449	172.17035482	438.78066350	 -9.54295812	 -0.29419155	  0.00246284	 -0.01811125	 -0.00115577	  0.89289075	  0.00056842	  0.00256535	  1.96850832	  0.00006504
